<?xml version="1.0" encoding="utf-8"?>
<!-- Generator: Adobe Illustrator 25.4.1, SVG Export Plug-In . SVG Version: 6.00 Build 0)  -->
<svg version="1.1" id="Layer_1" xmlns="http://www.w3.org/2000/svg" xmlns:xlink="http://www.w3.org/1999/xlink" x="0px" y="0px"
	 viewBox="0 0 512 512" style="enable-background:new 0 0 512 512;" xml:space="preserve">
<style type="text/css">
	.st0{fill:url(#SVGID_1_);}
	.st1{fill:#FFFFFF;}
</style>
<g>
	<linearGradient id="SVGID_1_" gradientUnits="userSpaceOnUse" x1="76.0386" y1="159.8384" x2="442.4792" y2="356.0699">
		<stop  offset="0" style="stop-color:#D0293F"/>
		<stop  offset="1" style="stop-color:#8538D9"/>
	</linearGradient>
	<path class="st0" d="M393,490.5H122.3c-54.2,0-98.1-43.9-98.1-98.1V121.7c0-54.2,43.9-98.1,98.1-98.1H393
		c54.2,0,98.1,43.9,98.1,98.1v270.7C491.1,446.6,447.2,490.5,393,490.5z"/>
	<g>
		<path class="st1" d="M399.1,343.8c-14.7-25.1-29.5-50.8-43.8-75.5c-5.5-9.6-11.1-19.2-16.6-28.8l-9.2-16
			c-15.8-27.3-31.5-54.5-47.2-81.8c-3.1-5.3-7-9.1-12-11.6c-3.8-1.9-8-2.9-12.3-2.9c-10.3,0-19.8,5.7-25.2,15.1
			c-20.9,36.3-42.2,73.2-62.7,108.8c-17.8,30.9-36.3,62.9-54.4,94.3c-2.2,3.7-3.5,8.3-3.7,12.7c-0.4,7.7,2.2,14.9,7.3,20.3
			c5.4,5.7,12.9,8.8,21.2,8.8c16.3,0,32.5,0,48.8,0l130.2,0c18.5,0,37.1,0,55.7,0c7.5,0,14-2.4,19.2-7
			C402.8,372.6,407.6,358.4,399.1,343.8z M374.7,358.7c-22.8-0.1-45.4-0.1-62.6-0.1c-9.1,0-18.2,0-27.3,0c-9.1,0-18.2,0-27.3,0H141
			c-0.1,0-0.2,0-0.3,0c0,0,0.1-0.1,0.1-0.1c11.2-19.4,22.4-38.7,33.6-58.1l15.5-26.9c15.4-26.7,30.8-53.3,46.2-80
			c2.4-4.2,4.9-8.5,7.3-12.7c4.7-8.2,9.5-16.4,14.2-24.6c0,0,0.1-0.1,0.1-0.1c0,0,0,0,0,0c9.6,16.6,19.2,33.3,28.8,49.9l13.9,24.1
			c8,13.8,44.5,77.1,44.5,77.1c2.8,4.9,5.7,9.8,8.5,14.7c6.9,12,14.1,24.5,21.3,36.7C374.8,358.7,374.8,358.7,374.7,358.7
			L374.7,358.7z"/>
		<path class="st1" d="M278.8,233.5c-2.5,13.2-5,26.5-7.6,39.7c-1.9,10.1-3.8,20.2-5.8,30.2c-0.8,4.2-4,4.7-5.3,4.7
			c-0.2,0-0.3,0-0.5,0c-0.3,0-0.5,0-0.8,0h-0.7c-0.3,0-0.5,0-0.8,0h-0.4c-0.3,0-0.6,0-0.9,0h-1.1c-4.5,0-5.3-2.5-5.7-5.2
			c-0.1-0.5-0.2-1-0.3-1.7c-2.5-13.1-4.9-26.5-7.3-39.4c-0.9-4.8-1.8-9.6-2.6-14.4c-0.3-1.6-0.6-3.3-0.9-4.9
			c-0.7-3.7-1.4-7.5-2.1-11.3c-0.8-4.9,0.7-10.1,4.2-14.4c3.8-4.7,9.4-7.6,15.1-7.8c0.3,0,0.6,0,0.9,0l1.4,0
			c11.2,0,19.4,6.4,21.4,16.7C279.6,228.5,279.2,231.3,278.8,233.5z"/>
		<path class="st1" d="M278.7,333.7c0,11.8-9.2,21.1-21,21.2h-0.1c-11.4,0-20.7-9.4-20.8-21c-0.1-11.7,9.1-20.9,20.9-21h0.2
			C269.3,312.8,278.6,322.2,278.7,333.7z"/>
	</g>
</g>
</svg>
